<?xml version="1.0" encoding="utf-8"?>
<svg viewBox="0 0 1280 704" shape-rendering="geometricPrecision" text-rendering="geometricPrecision" xmlns="http://www.w3.org/2000/svg">
  <g transform="matrix(0.11228, 0, 0, -0.054721, -79.910355, 514.083862)" style="">
    <path d="M700,4010v-2950h70h70v2950v2950h-70-70v-2950Z"/>
    <path d="M940,4010v-2950h30h30v2950v2950h-30-30v-2950Z"/>
    <path d="M1170,4010v-2950h30h30v2950v2950h-30-30v-2950Z"/>
    <path d="M1570,4010v-2950h145h145v2950v2950h-145-145v-2950Z"/>
    <path d="M1960,4010v-2950h30h30v2950v2950h-30-30v-2950Z"/>
    <path d="M2120,4010v-2950h110h110v2950v2950h-110-110v-2950Z"/>
    <path d="M2440,4010v-2950h105h105v2950v2950h-105-105v-2950Z"/>
    <path d="M2750,4010v-2950h30h30v2950v2950h-30-30v-2950Z"/>
    <path d="M3060,4010v-2950h70h70v2950v2950h-70-70v-2950Z"/>
    <path d="M3300,4010v-2950h30h30v2950v2950h-30-30v-2950Z"/>
    <path d="M3690,4010v-2950h70h70v2950v2950h-70-70v-2950Z"/>
    <path d="M3930,4010v-2950h30h30v2950v2950h-30-30v-2950Z"/>
    <path d="M4170,4010v-2950h65h65v2950v2950h-65-65v-2950Z"/>
    <path d="M4640,4010v-2950h30h30v2950v2950h-30-30v-2950Z"/>
    <path d="M4880,4010v-2950h30h30v2950v2950h-30-30v-2950Z"/>
    <path d="M5040,4010v-2950h25h25v2950v2950h-25-25v-2950Z"/>
    <path d="M5430,4010v-2950h70h70v2950v2950h-70-70v-2950Z"/>
    <path d="M5660,4010v-2950h30h30v2950v2950h-30-30v-2950Z"/>
    <path d="M5900,4010v-2950h30h30v2950v2950h-30-30v-2950Z"/>
    <path d="M6060,4010v-2950h30h30v2950v2950h-30-30v-2950Z"/>
    <path d="M6290,4010v-2950h150h150v2950v2950h-150-150v-2950Z"/>
    <path d="M6770,4010v-2950h30h30v2950v2950h-30-30v-2950Z"/>
    <path d="M6930,4010v-2950h65h65v2950v2950h-65-65v-2950Z"/>
    <path d="M7240,4010v-2950h30h30v2950v2950h-30-30v-2950Z"/>
    <path d="M7630,4010v-2950h30h30v2950v2950h-30-30v-2950Z"/>
    <path d="M8020,4010v-2950h30h30v2950v2950h-30-30v-2950Z"/>
    <path d="M8260,4010v-2950h70h70v2950v2950h-70-70v-2950Z"/>
    <path d="M8500,4010v-2950h30h30v2950v2950h-30-30v-2950Z"/>
    <path d="M8890,4010v-2950h70h70v2950v2950h-70-70v-2950Z"/>
    <path d="M9130,4010v-2950h30h30v2950v2950h-30-30v-2950Z"/>
    <path d="M9365,4010v-2950h28h27v2950v2950h-27-28v-2950Z"/>
    <path d="M9600,4010v-2950h30h30v2950v2950h-30-30v-2950Z"/>
    <path d="M9760,4010v-2950h70h70v2950v2950h-70-70v-2950Z"/>
    <path d="M10230,4010v-2950h30h30v2950v2950h-30-30v-2950Z"/>
    <path d="M10390,4010v-2950h145h145v2950v2950h-145-145v-2950Z"/>
    <path d="M10780,4010v-2950h110h110v2950v2950h-110-110v-2950Z"/>
    <path d="M11100,4010v-2950h70h70v2950v2950h-70-70v-2950Z"/>
    <path d="M11490,4010v-2950h110h110v2950v2950h-110-110v-2950Z"/>
    <path d="M11800,4010v-2950h30h30v2950v2950h-30-30v-2950Z"/>
    <path d="M11960,4010v-2950h70h70v2950v2950h-70-70v-2950Z"/>
  </g>
</svg>