<svg id="eWuoEb0ZTp71" xmlns="http://www.w3.org/2000/svg" xmlns:xlink="http://www.w3.org/1999/xlink" viewBox="0 0 300 300" shape-rendering="geometricPrecision" text-rendering="geometricPrecision"><g transform="matrix(1.30844 0.09844-.075023 0.997182-15.996618 36.635189)"><path d="M148.66511,61.82458c33.7165,15.28812,61.31668,35.73839,78.88113,56.58994v7.73707c-19.50577-20.83051-48.11114-41.05424-82.38669-56.59585-40.42576-18.33031-80.5534-26.43583-111.64602-24.49001l4.17822-3.90014c29.45848-4.64498,70.1078,2.12926,110.97335,20.65899h.00001Z" transform="translate(0 0.000001)" fill="#fc16ce" stroke-width="0"/><path d="M149.71837,69.36287c33.12276,16.0013,60.30624,36.56427,77.82787,57.14008v7.58275c-19.40664-20.67538-47.61733-41.12233-81.35538-57.42087-41.38715-19.99375-82.4945-29.59138-113.89369-28.55237l1.47514-2.95113c29.7585-4.79798,72.75177,3.33478,115.94606,24.20155v-.00001Z" transform="translate(0 0.000001)" fill="rgba(7,13,197,0.99)" stroke-width="0"/><path d="M149.02547,77.42422c-43.34833-20.78373-85.87172-30.76741-116.19599-29.24l-1.01286,3.32257c31.73241,1.68788,72.46006,12.77811,113.96697,32.67895c32.75406,15.70421,60.92655,34.4656,81.76265,53.31839v-7.22199c-19.18341-18.6947-46.39827-37.45652-78.52078-52.85793l.00001.00001Z" fill="#0fe7e4" stroke-width="0"/><path d="M149.39395,81.60603c32.24686,16.36689,59.35958,36.08149,78.15229,55.48551v7.31326c-20.49518-19.63548-48.61819-39.39964-81.54606-56.11219-41.88784-21.26017-83.17162-33.329-115.13634-35.38054l.88282-3.08325c30.48485-1.43544,73.76173,9.50309,117.64729,31.77721ZM12.48786,52.91799c.44836-.13809.90229-.2717,1.3617-.40083l-.08965.3131c-.42655.0269-.85058.05614-1.27205.08773Z" fill="#2acb1b" stroke-width="0"/><path d="M152.29786,89.66416c30.60875,15.47122,56.47227,32.95176,75.24839,49.8968v7.21542c-20.42802-17.5165-47.6405-35.48055-79.44683-51.55709C106.25491,74.06894,64.39275,60.19547,30.55893,54.86995l1.24559-3.0831c32.8696,2.58652,76.7588,15.77165,120.49334,37.87731Z" fill="#fcca07" stroke-width="0"/><path d="M148.32487,92.93985c31.92533,16.02179,59.10979,34.36748,79.22138,52.45457v8.17224c-21.81543-18.66145-50.40665-37.50427-83.59127-54.15803C104.06263,79.38858,64.2551,65.90587,30.55893,59.76962v-4.61096c33.50991,3.68509,75.6419,16.64118,117.76593,37.7812l.00001-.00001Z" fill="#f00d14" stroke-width="0"/></g></svg>
